<svg width="165" height="42" viewBox="0 0 165 42" fill="none" xmlns="http://www.w3.org/2000/svg">
<path d="M23.377 13.3303H26.9984V26.635C26.9984 27.6059 26.8016 28.4807 26.408 29.2592C26.0144 30.0465 25.4764 30.72 24.7941 31.2798C24.1206 31.8397 23.342 32.2683 22.4586 32.5657C21.5838 32.8631 20.6566 33.0118 19.6769 33.0118C18.7497 33.0118 17.8618 32.8281 17.0133 32.4607C16.1648 32.1021 15.4126 31.6035 14.7565 30.9649C14.1005 30.3264 13.5887 29.5916 13.2214 28.7606L16.5279 27.2517C16.7116 27.689 16.9609 28.0652 17.2758 28.3801C17.5994 28.695 17.9668 28.9355 18.3779 29.1017C18.7978 29.2767 19.2308 29.3642 19.6769 29.3642C20.158 29.3642 20.6172 29.3073 21.0546 29.1936C21.5007 29.0799 21.8987 28.9093 22.2486 28.6819C22.5985 28.4544 22.8741 28.1701 23.0753 27.829C23.2764 27.4879 23.377 27.0898 23.377 26.635V25.1129C22.9747 25.6115 22.4848 26.0183 21.9075 26.3332C21.3389 26.6394 20.6785 26.7924 19.9262 26.7924C18.9815 26.7924 18.0936 26.6131 17.2626 26.2545C16.4404 25.8958 15.7144 25.4016 15.0845 24.7718C14.4547 24.1332 13.9605 23.3985 13.6019 22.5675C13.2432 21.7365 13.0639 20.8442 13.0639 19.8908C13.0639 18.9373 13.2432 18.0451 13.6019 17.2141C13.9605 16.3831 14.4547 15.6527 15.0845 15.0229C15.7144 14.3843 16.4404 13.8857 17.2626 13.5271C18.0936 13.1684 18.9815 12.9891 19.9262 12.9891C20.6785 12.9891 21.3389 13.1466 21.9075 13.4615C22.4848 13.7676 22.9747 14.17 23.377 14.6686V13.3303ZM19.9787 23.3154C20.5735 23.3154 21.1115 23.1623 21.5926 22.8561C22.0737 22.5412 22.4498 22.1257 22.721 21.6096C23.0009 21.0935 23.1409 20.5206 23.1409 19.8908C23.1409 19.261 23.0009 18.688 22.721 18.1719C22.4498 17.6471 22.0737 17.2316 21.5926 16.9254C21.1115 16.6193 20.5735 16.4662 19.9787 16.4662C19.3926 16.4662 18.8547 16.6193 18.3648 16.9254C17.8837 17.2316 17.4988 17.6471 17.2102 18.1719C16.9215 18.688 16.7772 19.261 16.7772 19.8908C16.7772 20.5206 16.9215 21.0979 17.2102 21.6227C17.4988 22.1388 17.8837 22.55 18.3648 22.8561C18.8547 23.1623 19.3926 23.3154 19.9787 23.3154Z" fill="#17403E"/>
<path d="M60.2101 13.8415H63.2261V28.7185C63.2261 29.7142 63.0134 30.6325 62.5881 31.4735C62.1724 32.3145 61.6069 33.0395 60.8916 33.6485C60.1762 34.2672 59.3546 34.7457 58.4266 35.084C57.5082 35.4224 56.5464 35.5915 55.5411 35.5915C54.5261 35.5915 53.5497 35.374 52.6121 34.939C51.6744 34.5137 50.8479 33.9337 50.1326 33.199C49.4269 32.4644 48.9001 31.633 48.5521 30.705L51.3216 29.458C51.5149 30.0574 51.8242 30.589 52.2496 31.053C52.6846 31.517 53.1872 31.8844 53.7576 32.155C54.3376 32.4257 54.9321 32.561 55.5411 32.561C56.1404 32.561 56.7156 32.4644 57.2666 32.271C57.8272 32.0874 58.3251 31.8264 58.7601 31.488C59.2047 31.1497 59.5576 30.7437 59.8186 30.27C60.0796 29.7964 60.2101 29.2792 60.2101 28.7185V26.268C59.7364 27.0027 59.1274 27.5972 58.3831 28.0515C57.6387 28.4962 56.7736 28.7185 55.7876 28.7185C54.7629 28.7185 53.7962 28.5204 52.8876 28.124C51.9789 27.7277 51.1814 27.1815 50.4951 26.4855C49.8087 25.7799 49.2722 24.9679 48.8856 24.0495C48.4989 23.1312 48.3056 22.1452 48.3056 21.0915C48.3056 20.0379 48.4989 19.0519 48.8856 18.1335C49.2722 17.2055 49.8087 16.3935 50.4951 15.6975C51.1814 14.9919 51.9789 14.4409 52.8876 14.0445C53.7962 13.6482 54.7629 13.45 55.7876 13.45C56.7736 13.45 57.6387 13.6772 58.3831 14.1315C59.1274 14.5762 59.7364 15.1707 60.2101 15.915V13.8415ZM55.8166 25.804C56.6576 25.804 57.3922 25.5914 58.0206 25.166C58.6489 24.731 59.1371 24.1559 59.4851 23.4405C59.8331 22.7252 60.0071 21.9422 60.0071 21.0915C60.0071 20.2215 59.8282 19.4337 59.4706 18.728C59.1226 18.0127 58.6344 17.4424 58.0061 17.017C57.3777 16.582 56.6479 16.3645 55.8166 16.3645C55.0046 16.3645 54.2602 16.5772 53.5836 17.0025C52.9166 17.4279 52.3849 17.9982 51.9886 18.7135C51.5922 19.4289 51.3941 20.2215 51.3941 21.0915C51.3941 21.9615 51.5922 22.7542 51.9886 23.4695C52.3946 24.1849 52.9311 24.7552 53.5981 25.1805C54.2747 25.5962 55.0142 25.804 55.8166 25.804ZM72.6327 28.7185C71.2987 28.7185 70.0807 28.3754 68.9787 27.689C67.8864 27.0027 67.0116 26.0844 66.3542 24.934C65.7066 23.774 65.3827 22.4932 65.3827 21.0915C65.3827 20.0282 65.5712 19.0374 65.9482 18.119C66.3252 17.191 66.8424 16.379 67.4997 15.683C68.1667 14.9774 68.9401 14.4264 69.8197 14.03C70.6994 13.6337 71.6371 13.4355 72.6327 13.4355C73.7444 13.4355 74.7642 13.6675 75.6922 14.1315C76.6202 14.5859 77.4129 15.219 78.0702 16.031C78.7276 16.8334 79.2109 17.7614 79.5202 18.815C79.8296 19.859 79.9214 20.9707 79.7957 22.15H68.6162C68.7419 22.817 68.9836 23.4212 69.3412 23.9625C69.7086 24.4942 70.1726 24.9147 70.7332 25.224C71.3036 25.5334 71.9367 25.6929 72.6327 25.7025C73.3674 25.7025 74.0344 25.5189 74.6337 25.1515C75.2427 24.7842 75.7406 24.2767 76.1272 23.629L79.1867 24.3395C78.6067 25.6252 77.7319 26.6789 76.5622 27.5005C75.3926 28.3125 74.0827 28.7185 72.6327 28.7185ZM68.5147 19.8445H76.7507C76.6541 19.1485 76.4076 18.5202 76.0112 17.9595C75.6246 17.3892 75.1364 16.9397 74.5467 16.611C73.9667 16.2727 73.3287 16.1035 72.6327 16.1035C71.9464 16.1035 71.3084 16.2679 70.7187 16.5965C70.1387 16.9252 69.6554 17.3747 69.2687 17.945C68.8917 18.5057 68.6404 19.1389 68.5147 19.8445ZM95.6814 20.7435V28.3415H92.6654V20.8015C92.6654 19.9799 92.4914 19.2355 92.1434 18.5685C91.805 17.8919 91.3362 17.3554 90.7369 16.959C90.1472 16.553 89.4754 16.35 88.7214 16.35C87.9674 16.35 87.3052 16.553 86.7349 16.959C86.1742 17.3554 85.7344 17.8919 85.4154 18.5685C85.106 19.2355 84.9514 19.9799 84.9514 20.8015V28.3415H81.9354V13.8415H84.9514V15.799C85.454 15.0644 86.063 14.4892 86.7784 14.0735C87.4937 13.6482 88.3009 13.4355 89.1999 13.4355C90.5049 13.4355 91.6359 13.769 92.5929 14.436C93.5595 15.103 94.3135 15.9875 94.8549 17.0895C95.3962 18.1915 95.6717 19.4095 95.6814 20.7435ZM109.692 6.59152H112.708V28.3415H109.692V26.21C109.218 26.964 108.599 27.573 107.836 28.037C107.072 28.4914 106.178 28.7185 105.153 28.7185C104.1 28.7185 103.114 28.5204 102.195 28.124C101.277 27.7277 100.465 27.1815 99.7593 26.4855C99.0633 25.7799 98.5171 24.9679 98.1208 24.0495C97.7244 23.1312 97.5263 22.1452 97.5263 21.0915C97.5263 20.0379 97.7244 19.0519 98.1208 18.1335C98.5171 17.2055 99.0633 16.3935 99.7593 15.6975C100.465 14.9919 101.277 14.4409 102.195 14.0445C103.114 13.6482 104.1 13.45 105.153 13.45C106.178 13.45 107.072 13.682 107.836 14.146C108.599 14.6004 109.218 15.1997 109.692 15.944V6.59152ZM105.182 25.804C106.033 25.804 106.777 25.5962 107.415 25.1805C108.053 24.7552 108.546 24.1849 108.894 23.4695C109.252 22.7542 109.431 21.9615 109.431 21.0915C109.431 20.2119 109.252 19.4144 108.894 18.699C108.537 17.9837 108.039 17.4182 107.401 17.0025C106.772 16.5772 106.033 16.3645 105.182 16.3645C104.341 16.3645 103.573 16.5772 102.877 17.0025C102.19 17.4279 101.639 17.9982 101.224 18.7135C100.818 19.4289 100.615 20.2215 100.615 21.0915C100.615 21.9712 100.823 22.7687 101.238 23.484C101.664 24.1897 102.219 24.7552 102.906 25.1805C103.602 25.5962 104.361 25.804 105.182 25.804ZM122.561 28.7185C121.227 28.7185 120.009 28.3754 118.907 27.689C117.815 27.0027 116.94 26.0844 116.283 24.934C115.635 23.774 115.311 22.4932 115.311 21.0915C115.311 20.0282 115.5 19.0374 115.877 18.119C116.254 17.191 116.771 16.379 117.428 15.683C118.095 14.9774 118.869 14.4264 119.748 14.03C120.628 13.6337 121.566 13.4355 122.561 13.4355C123.673 13.4355 124.693 13.6675 125.621 14.1315C126.549 14.5859 127.342 15.219 127.999 16.031C128.656 16.8334 129.14 17.7614 129.449 18.815C129.758 19.859 129.85 20.9707 129.724 22.15H118.545C118.671 22.817 118.912 23.4212 119.27 23.9625C119.637 24.4942 120.101 24.9147 120.662 25.224C121.232 25.5334 121.865 25.6929 122.561 25.7025C123.296 25.7025 123.963 25.5189 124.562 25.1515C125.171 24.7842 125.669 24.2767 126.056 23.629L129.115 24.3395C128.535 25.6252 127.661 26.6789 126.491 27.5005C125.321 28.3125 124.011 28.7185 122.561 28.7185ZM118.443 19.8445H126.679C126.583 19.1485 126.336 18.5202 125.94 17.9595C125.553 17.3892 125.065 16.9397 124.475 16.611C123.895 16.2727 123.257 16.1035 122.561 16.1035C121.875 16.1035 121.237 16.2679 120.647 16.5965C120.067 16.9252 119.584 17.3747 119.197 17.945C118.82 18.5057 118.569 19.1389 118.443 19.8445ZM140.724 16.872C140.472 16.7174 140.197 16.5965 139.897 16.5095C139.607 16.4129 139.288 16.3645 138.94 16.3645C138.186 16.3645 137.529 16.5627 136.968 16.959C136.407 17.3554 135.968 17.8919 135.649 18.5685C135.339 19.2452 135.185 19.9944 135.185 20.816V28.3415H132.154V13.8415H135.17V15.799C135.673 15.074 136.282 14.5037 136.997 14.088C137.722 13.6627 138.529 13.45 139.419 13.45C139.747 13.45 140.057 13.4645 140.347 13.4935C140.646 13.5225 140.931 13.5805 141.202 13.6675L140.724 16.872ZM143.968 28.3415V6.59152H146.969V28.3415H143.968ZM159.758 13.8415H162.977L155.031 35.5915H151.827L154.451 28.3415L149.246 13.8415H152.537L155.959 24.209L159.758 13.8415Z" fill="#17403E"/>
<path d="M30.3383 12.7779L27.9064 10.9945L29.4142 8.93548L26.9984 8.15726L27.9064 5.27137L30.3545 6.0658V3.53659H33.3701V6.0658L35.7858 5.27137L36.7262 8.15726L34.278 8.93548L35.7858 10.9945L33.3377 12.7779L31.8623 10.7027L30.3383 12.7779Z" fill="#17403E"/>
<path d="M37.2539 13.3862C39.3453 17.3708 39.9904 21.9572 39.0793 26.3641C38.1682 30.771 35.7572 34.7256 32.2572 37.5542C28.7572 40.3827 24.3847 41.9102 19.8848 41.8763C15.3848 41.8424 11.0358 40.2493 7.5788 37.3684C4.12178 34.4875 1.77063 30.497 0.925953 26.0769C0.0812771 21.6568 0.79534 17.0806 2.94648 13.128C5.09761 9.17532 8.55272 6.09084 12.7231 4.40007C16.8935 2.70931 21.5211 2.51687 25.8174 3.85555L24.4314 8.30379C21.1642 7.28576 17.6451 7.43211 14.4736 8.71787C11.3022 10.0036 8.67471 12.3493 7.03884 15.3551C5.40298 18.361 4.85995 21.841 5.5023 25.2024C6.14465 28.5637 7.93262 31.5983 10.5616 33.7892C13.1905 35.98 16.4978 37.1915 19.9198 37.2173C23.3419 37.2431 26.667 36.0815 29.3287 33.9304C31.9903 31.7794 33.8237 28.7721 34.5166 25.4208C35.2095 22.0695 34.7189 18.5816 33.1285 15.5515L37.2539 13.3862Z" fill="#1DA9B2"/>
</svg>
