<?xml version="1.0" standalone="no"?>
<!DOCTYPE svg PUBLIC "-//W3C//DTD SVG 20010904//EN"
 "http://www.w3.org/TR/2001/REC-SVG-20010904/DTD/svg10.dtd">
<svg version="1.0" xmlns="http://www.w3.org/2000/svg"
 width="672.000000pt" height="672.000000pt" viewBox="0 0 672.000000 672.000000"
 preserveAspectRatio="xMidYMid meet">
<metadata>
Created by potrace 1.14, written by Peter Selinger 2001-2017
</metadata>
<g transform="translate(0.000000,672.000000) scale(0.100000,-0.100000)"
fill="#000000" stroke="none">
<path d="M3226 6243 c-1 -1 -42 -4 -91 -8 -50 -3 -101 -8 -115 -10 -14 -2 -45
-6 -70 -9 -49 -6 -190 -31 -230 -40 -14 -3 -34 -8 -45 -10 -220 -45 -551 -168
-762 -283 -49 -26 -98 -52 -110 -58 -13 -5 -23 -13 -23 -17 0 -5 -7 -8 -15 -8
-8 0 -15 -5 -15 -12 0 -6 -3 -9 -6 -6 -6 7 -227 -140 -232 -154 -2 -4 -10 -8
-17 -8 -7 0 -15 -4 -17 -8 -2 -4 -23 -23 -48 -42 -51 -40 -45 -35 -140 -120
-114 -102 -236 -228 -308 -318 -19 -22 -43 -51 -54 -64 -40 -46 -158 -216
-223 -321 -138 -226 -311 -629 -341 -794 -4 -21 -9 -42 -13 -48 -3 -5 -6 -14
-7 -20 -1 -8 -25 -117 -29 -135 -3 -11 -19 -96 -20 -110 -2 -8 -5 -35 -9 -60
-23 -154 -29 -256 -30 -445 0 -156 10 -349 19 -385 4 -13 11 -62 20 -125 1
-11 6 -38 10 -60 4 -22 9 -47 10 -55 2 -8 9 -37 15 -65 7 -27 14 -60 15 -72 2
-12 6 -27 10 -33 3 -5 8 -22 11 -36 6 -32 80 -259 98 -299 7 -16 26 -61 42
-100 37 -91 143 -299 189 -370 19 -31 35 -59 35 -64 0 -5 4 -11 8 -13 4 -2 19
-21 32 -43 37 -61 123 -179 137 -188 7 -4 13 -12 13 -17 0 -6 8 -18 18 -28 9
-10 39 -45 67 -78 112 -135 320 -331 470 -444 44 -32 85 -63 90 -67 43 -35
233 -152 320 -198 33 -17 71 -38 85 -45 14 -8 27 -15 30 -15 3 -1 37 -16 75
-34 108 -51 311 -128 385 -147 8 -2 58 -15 110 -29 52 -15 109 -29 125 -31 17
-3 44 -9 60 -14 29 -8 74 -15 160 -26 22 -2 51 -7 65 -10 55 -13 166 -18 380
-18 196 -1 285 4 390 18 14 2 50 7 80 10 30 4 73 12 95 17 22 6 47 11 55 11
21 1 210 47 240 58 14 5 36 12 50 14 29 6 162 53 275 98 105 43 316 148 396
198 35 22 79 47 97 56 17 9 32 20 32 25 0 5 5 9 10 9 9 0 65 35 80 50 3 3 23
18 46 33 22 15 49 35 60 45 11 10 26 23 35 28 73 43 370 337 476 471 15 20 33
41 39 47 61 64 229 328 312 488 117 225 249 587 267 729 2 16 6 33 9 38 3 5 8
26 12 46 3 21 8 47 10 59 58 296 65 720 18 1006 -3 19 -7 49 -10 65 -4 30 -9
60 -19 105 -3 14 -7 34 -9 45 -4 18 -31 128 -41 165 -55 210 -220 610 -251
610 -7 0 -37 -13 -66 -29 -109 -58 -227 -121 -348 -184 -148 -77 -211 -110
-227 -120 -8 -5 0 -31 28 -87 21 -44 39 -82 39 -84 0 -3 5 -17 12 -33 6 -15
12 -30 12 -33 1 -3 4 -10 8 -16 6 -9 35 -94 67 -199 16 -50 36 -133 45 -185 2
-8 7 -33 11 -55 14 -71 15 -79 22 -145 10 -87 10 -460 0 -535 -5 -33 -10 -76
-13 -95 -4 -28 -19 -105 -39 -195 -16 -74 -85 -287 -96 -300 -5 -5 -9 -16 -9
-24 0 -22 -160 -341 -171 -341 -5 0 -8 -3 -7 -7 5 -17 -164 -251 -252 -347
-164 -181 -408 -379 -580 -472 -19 -10 -42 -24 -50 -30 -32 -24 -290 -135
-393 -169 -122 -40 -297 -82 -377 -90 -30 -4 -61 -8 -68 -10 -70 -23 -445 -23
-602 0 -14 2 -41 6 -60 9 -20 2 -47 7 -60 10 -14 3 -36 8 -50 10 -14 3 -35 7
-47 10 -13 4 -33 8 -44 11 -136 29 -342 107 -504 189 -125 64 -334 192 -360
221 -5 6 -41 36 -80 67 -110 89 -281 263 -365 374 -42 55 -154 219 -153 224 0
3 -11 23 -25 45 -37 58 -127 249 -163 346 -38 105 -68 199 -63 199 3 0 0 8 -5
19 -6 10 -13 33 -16 52 -3 19 -11 54 -16 79 -16 66 -23 112 -35 205 -24 197
-17 495 17 655 6 25 10 52 10 60 1 8 8 44 16 80 8 36 17 75 19 88 6 32 63 202
80 239 8 17 14 33 14 36 0 2 8 22 17 43 9 22 17 41 18 44 6 23 106 210 146
270 27 41 52 83 55 93 4 9 10 17 14 17 5 0 11 8 14 18 4 10 14 27 24 38 9 10
44 53 77 94 295 371 754 666 1229 790 122 31 255 56 362 67 97 10 394 9 484
-1 114 -13 123 -14 150 -20 14 -3 41 -9 60 -12 45 -8 210 -50 231 -59 19 -7
11 -28 114 305 37 118 80 255 96 305 16 49 25 93 21 97 -6 6 -159 50 -225 64
-65 14 -176 36 -200 39 -223 31 -286 36 -485 38 -79 1 -144 1 -146 0z"/>
<path d="M5019 6150 c-1 -3 -2 -93 -3 -200 -1 -120 -5 -194 -11 -194 -28 5
-252 78 -262 86 -7 6 -13 8 -13 5 0 -3 -24 2 -53 12 l-53 18 -44 -141 c-24
-77 -56 -181 -72 -230 -15 -49 -27 -90 -26 -91 2 -1 64 -21 138 -44 74 -23
142 -46 150 -50 9 -5 30 -12 48 -15 34 -8 53 -27 34 -34 -7 -2 -12 -10 -12
-18 0 -8 -4 -14 -8 -14 -4 0 -16 -15 -27 -32 -10 -18 -24 -37 -32 -41 -7 -4
-13 -14 -13 -22 0 -7 -4 -15 -8 -17 -9 -4 -122 -158 -122 -167 0 -3 17 -17 38
-31 20 -14 39 -27 42 -30 3 -3 39 -30 80 -60 41 -30 77 -58 78 -62 2 -5 10 -8
18 -8 8 0 17 -7 20 -15 3 -8 14 -17 24 -20 10 -3 30 -17 46 -30 16 -14 32 -25
36 -25 4 0 17 15 30 33 12 17 26 37 31 42 4 6 37 51 73 100 36 50 74 99 83
111 10 12 20 26 22 33 4 12 79 -81 79 -98 0 -5 4 -11 8 -13 5 -1 24 -25 43
-53 63 -91 111 -155 116 -155 3 0 32 20 64 45 33 25 63 45 68 45 5 0 11 3 13
8 3 7 73 62 118 92 12 8 28 21 36 28 7 6 16 12 21 12 9 1 63 46 63 54 0 3 -52
76 -115 162 -63 87 -112 161 -108 164 8 7 232 80 245 80 4 0 19 5 35 12 15 6
30 12 33 13 45 11 60 17 60 27 0 6 -32 109 -71 229 -44 138 -75 219 -83 219
-8 0 -33 -7 -57 -16 -24 -8 -98 -33 -164 -54 -66 -21 -128 -41 -137 -45 -16
-6 -18 8 -20 196 l-3 203 -238 1 c-130 0 -237 -2 -238 -5z"/>
<path d="M3299 4646 c-2 -3 -32 -7 -65 -11 -366 -34 -713 -281 -873 -620 -82
-171 -111 -308 -106 -499 3 -130 7 -163 27 -241 5 -22 11 -47 13 -55 10 -48
114 -265 146 -304 5 -6 28 -36 52 -66 68 -88 183 -193 272 -247 120 -74 314
-146 429 -160 64 -8 247 -7 286 1 143 29 252 88 363 196 l57 57 1 -116 c1 -64
0 -120 -1 -126 -1 -5 -3 -28 -5 -50 -7 -82 -68 -196 -125 -235 -13 -8 -29 -22
-38 -30 -30 -29 -160 -84 -224 -95 -18 -4 -49 -10 -69 -14 -20 -5 -81 -7 -135
-6 -158 5 -265 48 -368 150 -72 71 -93 98 -113 147 -17 42 -8 44 -146 -21 -48
-22 -90 -41 -92 -41 -3 0 -38 -15 -77 -34 -40 -19 -108 -51 -150 -71 -43 -19
-78 -38 -78 -41 0 -15 63 -128 106 -189 100 -144 246 -270 420 -363 97 -52
258 -103 370 -116 11 -2 26 -6 32 -10 7 -4 12 -3 12 2 0 6 14 7 33 3 17 -3 43
-6 57 -5 129 8 213 15 219 18 3 2 22 7 41 10 79 13 98 18 156 37 120 39 284
119 322 156 7 7 17 13 20 13 7 0 40 28 117 100 136 127 235 301 275 484 9 41
23 181 22 221 0 6 -2 36 -3 67 -2 32 0 60 3 64 4 3 3 16 -2 29 -5 13 -7 25 -5
27 6 5 6 35 5 198 -1 74 -1 140 0 145 1 6 1 13 0 18 -2 9 -2 75 0 85 1 4 1 12
0 17 -1 6 -2 33 -2 60 0 28 1 55 2 60 1 6 1 13 0 18 -1 4 -2 23 -2 42 0 19 1
38 2 43 1 4 1 12 0 17 -1 6 -2 30 -1 55 1 85 1 135 -1 177 -1 24 1 45 5 49 3
3 2 16 -3 29 -5 13 -6 25 -4 28 5 5 6 37 2 134 -1 24 1 45 5 49 3 3 2 16 -3
29 -5 13 -7 25 -5 27 6 5 6 35 5 198 -1 74 -1 140 0 145 1 6 1 13 0 18 -2 9
-2 75 0 85 1 4 2 11 0 17 -5 28 -4 95 2 95 4 0 3 12 -1 28 -5 15 -7 34 -6 43
3 15 -25 16 -284 15 l-286 -1 -5 -103 -5 -102 -46 47 c-56 58 -69 69 -134 110
-48 31 -117 64 -142 69 -6 1 -29 8 -49 14 -21 7 -76 13 -123 14 -47 0 -89 4
-92 9 -3 4 -7 5 -10 3z m188 -580 c221 -58 379 -282 374 -531 -4 -149 -37
-246 -124 -361 -43 -56 -147 -134 -202 -150 -5 -2 -31 -10 -57 -18 -47 -15
-182 -16 -243 -2 -53 12 -150 64 -199 107 -289 255 -239 744 94 917 115 60
229 72 357 38z"/>
</g>
</svg>
